<svg width="159" height="32" viewBox="0 0 159 32" fill="none" xmlns="http://www.w3.org/2000/svg">
<path d="M43.3104 7.05631L42.9702 5.94643L44.8254 4.1196L46.4375 6.89833L46.6765 6.51757L45.8259 2.93276L46.8385 1.74998C46.8385 1.74998 47.5839 0.911498 47.3206 0.214789C46.5914 0.0689663 45.8907 0.943903 45.8907 0.943903L44.8942 2.13884L41.2203 1.89985L40.8841 2.1996L43.8897 3.32973L42.395 5.46441L41.2446 5.31454L40.6937 5.50492L42.3221 6.13681L43.2132 7.63555L43.3104 7.05631Z" fill="white"/>
<path d="M39.8998 8.88314C37.3357 11.3338 32.8193 14.3515 27.359 16.794C23.2598 18.629 19.436 19.1596 16.0902 19.3783C13.9919 19.516 12.6269 19.1312 11.841 18.5236C11.5737 18.3171 11.3752 18.0902 11.2335 17.8472C10.7636 17.033 10.9864 15.8867 11.9099 14.5581C12.7443 13.3591 14.1499 12.0183 16.155 10.633C14.7251 10.9773 13.5342 11.4431 12.5297 11.9657C9.21623 13.6872 7.93218 15.5991 7.55548 17.1383C7.42991 17.6406 7.05725 21.1971 12.1246 22.0031C12.1813 22.0112 12.238 22.0274 12.2947 22.0355C12.4243 22.0558 12.5621 22.0679 12.6957 22.0841C13.5707 22.1854 14.5428 22.2097 15.6122 22.1368C19.2456 21.8938 23.6446 20.6867 28.0071 18.7343C28.234 18.633 28.4527 18.5236 28.6755 18.4183C32.9327 16.4092 36.874 13.5819 39.3651 10.7829C39.2436 10.9085 39.1707 10.9692 39.1707 10.9692C39.1707 10.9692 39.2436 10.9044 39.3651 10.7829C39.5757 10.5439 39.7742 10.3049 39.9646 10.07C40.4466 9.42592 41.3297 8.23503 41.6416 7.0239C41.2527 7.59909 40.6086 8.20263 39.8998 8.88314Z" fill="white"/>
<path d="M26.9013 1.64467C21.0927 1.66492 16.0699 4.97024 13.5707 9.79049C13.5423 9.8472 13.5059 9.89986 13.4816 9.95657C15.1423 9.46644 17.2 9.15859 19.7074 9.21125C19.7641 9.21125 19.8168 9.21125 19.8735 9.21125C16.7545 11.3621 14.6684 13.1282 14.1418 14.5297C14.0122 14.9672 14.0365 15.3723 14.2471 15.7368C14.8061 16.7009 16.078 17.2801 18.8811 17.0452C21.7044 16.8062 23.1261 16.6239 27.7519 14.9591C32.3089 13.3145 36.3636 10.6047 39.2922 8.06492C36.558 4.17226 32.0254 1.62847 26.9013 1.64467Z" fill="white"/>
<path d="M32.4304 28.3262C29.9028 29.833 27.598 30.9388 25.516 31.7328C26.0021 31.7773 26.5003 31.8016 26.9985 31.8016C34.0264 31.7773 39.9119 26.953 41.5646 20.4396C39.2962 23.3156 36.0476 26.1713 32.4304 28.3262Z" fill="white"/>
<path d="M40.8152 10.7829C38.5509 14.315 32.957 18.6209 26.3585 21.2659C21.5828 23.1819 17.4228 24.2229 14.0244 24.474C13.9636 24.4781 13.8947 24.4862 13.834 24.4902C13.4492 24.5145 13.0806 24.5307 12.7241 24.5348C10.4477 24.5672 8.71803 24.2067 7.77423 23.4816C6.46993 22.6594 4.80917 21.2497 5.44512 18.1024C3.97879 20.3951 3.64259 22.4771 4.3717 24.0366C5.16563 25.7378 6.8912 26.7181 9.18385 27.1232C10.3626 27.3297 11.6912 27.3864 13.1211 27.3095C13.1656 27.3054 13.2142 27.3054 13.2588 27.3014C13.9312 27.2609 14.6198 27.192 15.3287 27.0988C15.4542 27.0826 15.5798 27.0624 15.7094 27.0421C15.7823 27.03 15.8552 27.0178 15.9282 27.0057C19.6264 26.4386 23.7256 25.2032 27.5008 23.5059C34.9135 20.1763 39.272 16.4943 41.5687 13.0188C41.3742 12.2452 41.1231 11.4999 40.8152 10.7829Z" fill="white"/>
<path d="M41.9292 14.9834C41.277 15.9515 39.7216 17.8958 37.7003 19.6011C36.6188 20.5166 35.3064 21.4401 33.8441 22.4568C31.4704 24.1014 29.2547 25.1667 27.2942 26.0376C27.2942 26.0376 21.0725 28.7758 17.7388 28.6502C16.5682 28.6057 15.754 28.2249 15.7013 27.269C15.7013 27.269 13.8826 29.3631 16.7504 30.3839C17.9292 30.8052 19.4482 30.7971 21.0077 30.5783C24.1793 30.1328 27.5332 28.788 28.6188 28.229L28.6228 28.2371C34.9216 25.268 40.0983 20.5449 41.9697 18.0619C42.0102 17.6042 42.0345 17.1424 42.0304 16.6766C42.0264 16.1014 41.9899 15.5383 41.9292 14.9834Z" fill="white"/>
<path d="M91.2497 13.4482L90.0872 13.4806C89.6335 13.4968 89.4472 13.5373 89.3297 13.7115C89.2527 13.829 89.2122 13.9262 89.196 13.987C89.1798 14.0518 89.1555 14.0801 89.111 14.0801C89.0583 14.0801 89.0421 14.0396 89.0421 13.9545C89.0421 13.829 89.192 13.108 89.2041 13.0432C89.2284 12.9378 89.2487 12.8933 89.2973 12.8933C89.3621 12.8933 89.4391 12.9702 89.6335 12.9864C89.8603 13.0107 90.156 13.027 90.4153 13.027H93.5059C93.7571 13.027 93.9272 13.0026 94.0446 12.9864C94.1621 12.9621 94.2229 12.9459 94.2553 12.9459C94.3079 12.9459 94.316 12.9945 94.316 13.112C94.316 13.2781 94.2917 13.8249 94.2917 14.0315C94.2836 14.1085 94.2674 14.1571 94.2229 14.1571C94.1621 14.1571 94.1459 14.1166 94.1378 13.9991L94.1297 13.91C94.1135 13.7034 93.9029 13.4806 93.2102 13.4685L92.2259 13.4482V16.6968C92.2259 17.4259 92.2259 18.0497 92.2664 18.39C92.2907 18.6128 92.3353 18.787 92.5702 18.8194C92.6796 18.8356 92.8497 18.8518 92.9672 18.8518C93.0522 18.8518 93.0927 18.8761 93.0927 18.9166C93.0927 18.9733 93.032 18.9935 92.9429 18.9935C92.4284 18.9935 91.9383 18.9692 91.7196 18.9692C91.5414 18.9692 91.0472 18.9935 90.7353 18.9935C90.634 18.9935 90.5773 18.9692 90.5773 18.9166C90.5773 18.8761 90.6097 18.8518 90.7029 18.8518C90.8203 18.8518 90.9135 18.8356 90.9824 18.8194C91.1363 18.787 91.1849 18.6128 91.2092 18.3819C91.2497 18.0497 91.2497 17.4219 91.2497 16.6928V13.4482Z" fill="white"/>
<path d="M95.75 15.3034C95.75 14.1004 95.75 13.8776 95.7338 13.6224C95.7176 13.351 95.6568 13.2254 95.3976 13.1728C95.3368 13.1566 95.2031 13.1485 95.0938 13.1485C95.0087 13.1485 94.9601 13.1323 94.9601 13.0756C94.9601 13.0188 95.0168 13.0026 95.1302 13.0026C95.3408 13.0026 95.5677 13.0107 95.7621 13.0107C95.9646 13.0188 96.1429 13.0269 96.2522 13.0269C96.5034 13.0269 98.0548 13.0269 98.2006 13.0188C98.3505 13.0026 98.476 12.9864 98.5368 12.9702C98.5773 12.9621 98.6219 12.9378 98.6624 12.9378C98.6988 12.9378 98.7069 12.9702 98.7069 13.0107C98.7069 13.0675 98.6664 13.1606 98.6462 13.5252C98.6381 13.6021 98.6219 13.9545 98.6057 14.0477C98.5976 14.0882 98.5813 14.1328 98.5287 14.1328C98.476 14.1328 98.4598 14.0923 98.4598 14.0234C98.4598 13.9667 98.4517 13.833 98.4112 13.7399C98.3586 13.5981 98.2776 13.5009 97.8887 13.4563C97.755 13.4401 96.9368 13.4239 96.7829 13.4239C96.7424 13.4239 96.7302 13.4482 96.7302 13.5049V15.51C96.7302 15.5667 96.7383 15.5951 96.7829 15.5951C96.953 15.5951 97.8522 15.5951 98.0305 15.5788C98.2168 15.5626 98.3343 15.5383 98.4031 15.4614C98.4558 15.3966 98.4882 15.3561 98.5287 15.3561C98.5611 15.3561 98.5813 15.3723 98.5813 15.4209C98.5813 15.4695 98.5489 15.5951 98.5206 16.0001C98.5125 16.1581 98.4882 16.474 98.4882 16.5307C98.4882 16.5956 98.4882 16.6806 98.4193 16.6806C98.3667 16.6806 98.3505 16.6482 98.3505 16.6077C98.3424 16.5267 98.3424 16.4254 98.3181 16.3242C98.2776 16.1662 98.1682 16.0447 97.8806 16.0163C97.7307 16.0001 96.9611 15.992 96.7707 15.992C96.7302 15.992 96.7262 16.0244 96.7262 16.073V16.7009C96.7262 16.9682 96.7181 17.6973 96.7262 17.9282C96.7424 18.4751 96.8679 18.5925 97.6619 18.5925C97.8644 18.5925 98.1925 18.5925 98.395 18.4994C98.5976 18.4062 98.6907 18.2361 98.7474 17.912C98.7636 17.8229 98.7798 17.7945 98.8325 17.7945C98.8973 17.7945 98.8973 17.8594 98.8973 17.9363C98.8973 18.1186 98.8325 18.6573 98.796 18.8153C98.7434 19.0219 98.6705 19.0219 98.3748 19.0219C97.7915 19.0219 97.3621 19.0057 97.0259 18.9976C96.6897 18.9814 96.4507 18.9733 96.2158 18.9733C96.1307 18.9733 95.9606 18.9733 95.7702 18.9814C95.592 18.9814 95.3895 18.9976 95.2315 18.9976C95.1302 18.9976 95.0735 18.9733 95.0735 18.9166C95.0735 18.8761 95.1059 18.8518 95.1991 18.8518C95.3165 18.8518 95.4097 18.8356 95.4786 18.8194C95.6325 18.7869 95.673 18.6128 95.7054 18.3819C95.7459 18.0497 95.7459 17.4219 95.7459 16.6928V15.3034H95.75Z" fill="white"/>
<path d="M100.801 18.2401C100.036 17.5596 99.833 16.6725 99.833 15.9029C99.833 15.3642 99.995 14.4285 100.744 13.7318C101.307 13.2092 102.049 12.8933 103.211 12.8933C103.693 12.8933 103.985 12.9257 104.341 12.9743C104.637 13.0148 104.888 13.0837 105.123 13.108C105.208 13.1161 105.241 13.1566 105.241 13.2011C105.241 13.2659 105.216 13.3591 105.2 13.6386C105.184 13.9019 105.192 14.3353 105.176 14.4933C105.168 14.6107 105.151 14.6756 105.083 14.6756C105.022 14.6756 105.006 14.6107 105.006 14.5014C104.998 14.2543 104.896 13.9788 104.702 13.7723C104.443 13.4928 103.835 13.2821 103.118 13.2821C102.442 13.2821 101.996 13.4563 101.652 13.7723C101.081 14.3029 100.935 15.0563 100.935 15.8259C100.935 17.7135 102.348 18.6452 103.394 18.6452C104.09 18.6452 104.507 18.5642 104.823 18.1996C104.957 18.0497 105.058 17.8188 105.087 17.6771C105.111 17.5515 105.127 17.5191 105.188 17.5191C105.241 17.5191 105.257 17.5758 105.257 17.6366C105.257 17.7297 105.164 18.4224 105.087 18.6897C105.046 18.8234 105.018 18.8639 104.884 18.9206C104.572 19.0462 103.981 19.1029 103.479 19.1029C102.409 19.107 101.51 18.868 100.801 18.2401Z" fill="white"/>
<path d="M110.928 15.5221C110.952 15.5221 110.972 15.5059 110.972 15.4654V15.2994C110.972 14.0963 110.972 13.8735 110.956 13.6183C110.94 13.347 110.879 13.2214 110.62 13.1687C110.559 13.1525 110.425 13.1444 110.316 13.1444C110.231 13.1444 110.182 13.1282 110.182 13.0715C110.182 13.0148 110.235 12.9986 110.344 12.9986C110.766 12.9986 111.256 13.0229 111.466 13.0229C111.653 13.0229 112.147 12.9986 112.451 12.9986C112.56 12.9986 112.613 13.0148 112.613 13.0715C112.613 13.1282 112.564 13.1444 112.471 13.1444C112.41 13.1444 112.337 13.1525 112.244 13.1687C112.034 13.2092 111.973 13.3429 111.957 13.6183C111.94 13.8695 111.94 14.0923 111.94 15.2994V16.6928C111.94 17.4219 111.94 18.0457 111.981 18.3859C112.005 18.6087 112.05 18.7829 112.285 18.8153C112.394 18.8315 112.564 18.8477 112.682 18.8477C112.767 18.8477 112.807 18.872 112.807 18.9125C112.807 18.9692 112.746 18.9935 112.653 18.9935C112.147 18.9935 111.653 18.9692 111.434 18.9692C111.256 18.9692 110.762 18.9935 110.458 18.9935C110.348 18.9935 110.296 18.9692 110.296 18.9125C110.296 18.872 110.328 18.8477 110.421 18.8477C110.539 18.8477 110.632 18.8315 110.701 18.8153C110.859 18.7829 110.895 18.6087 110.928 18.3778C110.964 18.0457 110.964 17.4178 110.964 16.6887V16.0001C110.964 15.9677 110.94 15.9515 110.92 15.9515H107.938C107.914 15.9515 107.894 15.9596 107.894 16.0001V16.6968C107.894 17.4259 107.894 18.0497 107.934 18.39C107.959 18.6128 108.003 18.787 108.238 18.8194C108.347 18.8356 108.518 18.8518 108.635 18.8518C108.72 18.8518 108.761 18.8761 108.761 18.9166C108.761 18.9733 108.7 18.9976 108.607 18.9976C108.1 18.9976 107.606 18.9733 107.387 18.9733C107.209 18.9733 106.719 18.9976 106.403 18.9976C106.302 18.9976 106.245 18.9733 106.245 18.9166C106.245 18.8761 106.278 18.8518 106.371 18.8518C106.488 18.8518 106.581 18.8356 106.65 18.8194C106.808 18.787 106.845 18.6128 106.877 18.3819C106.918 18.0497 106.918 17.4219 106.918 16.6928V15.2994C106.918 14.0963 106.918 13.8735 106.901 13.6183C106.885 13.347 106.824 13.2214 106.565 13.1687C106.504 13.1525 106.371 13.1444 106.261 13.1444C106.176 13.1444 106.128 13.1282 106.128 13.0715C106.128 13.0148 106.18 12.9986 106.29 12.9986C106.711 12.9986 107.201 13.0229 107.412 13.0229C107.598 13.0229 108.088 12.9986 108.396 12.9986C108.505 12.9986 108.558 13.0148 108.558 13.0715C108.558 13.1282 108.514 13.1444 108.416 13.1444C108.356 13.1444 108.283 13.1525 108.189 13.1687C107.979 13.2092 107.918 13.3429 107.902 13.6183C107.886 13.8695 107.886 14.0923 107.886 15.2994V15.4654C107.886 15.5059 107.91 15.5221 107.93 15.5221H110.928Z" fill="white"/>
<path d="M114.946 17.9161C114.962 18.5358 115.063 18.7383 115.217 18.7951C115.351 18.8437 115.497 18.8518 115.622 18.8518C115.707 18.8518 115.756 18.868 115.756 18.9166C115.756 18.9814 115.687 18.9935 115.578 18.9935C115.071 18.9935 114.76 18.9692 114.61 18.9692C114.541 18.9692 114.172 18.9935 113.767 18.9935C113.666 18.9935 113.597 18.9854 113.597 18.9166C113.597 18.868 113.646 18.8518 113.723 18.8518C113.824 18.8518 113.966 18.8437 114.075 18.8113C114.278 18.7464 114.31 18.5196 114.318 17.831L114.387 13.1647C114.387 13.0067 114.411 12.8933 114.488 12.8933C114.573 12.8933 114.642 12.9945 114.776 13.1404C114.869 13.2457 116.056 14.5135 117.194 15.6599C117.725 16.1986 118.778 17.3409 118.911 17.4664H118.952L118.875 13.91C118.867 13.428 118.798 13.2781 118.612 13.1971C118.494 13.1485 118.308 13.1485 118.199 13.1485C118.105 13.1485 118.073 13.1242 118.073 13.0756C118.073 13.0107 118.158 13.0026 118.276 13.0026C118.681 13.0026 119.057 13.027 119.219 13.027C119.304 13.027 119.6 13.0026 119.985 13.0026C120.086 13.0026 120.163 13.0107 120.163 13.0756C120.163 13.1242 120.115 13.1485 120.021 13.1485C119.944 13.1485 119.88 13.1485 119.786 13.1728C119.568 13.2376 119.507 13.4037 119.499 13.8452L119.414 18.8437C119.414 19.0178 119.381 19.0907 119.312 19.0907C119.227 19.0907 119.134 19.0016 119.049 18.9166C118.559 18.4426 117.559 17.4057 116.748 16.5875C115.898 15.7328 115.031 14.7647 114.893 14.6148H114.869L114.946 17.9161Z" fill="white"/>
<path fill-rule="evenodd" clip-rule="evenodd" d="M124.189 12.8933C121.852 12.8933 120.969 14.6432 120.969 16.0001C120.969 17.4016 121.872 19.107 124.112 19.1029C126.093 19.1029 127.341 17.669 127.341 15.8543C127.341 14.0437 126.13 12.8933 124.189 12.8933ZM123.967 13.274C125.247 13.274 126.251 14.3758 126.251 16.15C126.251 18.4386 124.987 18.71 124.441 18.71C122.946 18.71 122.047 17.4016 122.047 15.753C122.047 13.7804 123.067 13.274 123.967 13.274Z" fill="white"/>
<path d="M129.949 16.6968C129.949 17.7095 129.949 18.2563 130.111 18.3981C130.245 18.5156 130.448 18.5723 131.055 18.5723C131.468 18.5723 131.772 18.5642 131.967 18.3495C132.06 18.2482 132.153 18.0254 132.169 17.8756C132.177 17.8026 132.194 17.7581 132.254 17.7581C132.307 17.7581 132.315 17.7986 132.315 17.8918C132.315 17.9809 132.262 18.5723 132.198 18.8032C132.149 18.9773 132.113 19.0178 131.707 19.0178C131.144 19.0178 130.739 19.0016 130.391 18.9935C130.039 18.9773 129.759 18.9692 129.439 18.9692C129.354 18.9692 129.184 18.9692 128.994 18.9773C128.815 18.9773 128.613 18.9935 128.455 18.9935C128.354 18.9935 128.301 18.9692 128.301 18.9166C128.301 18.8761 128.333 18.8518 128.426 18.8518C128.544 18.8518 128.637 18.8356 128.706 18.8194C128.864 18.787 128.9 18.6128 128.933 18.3819C128.973 18.0497 128.973 17.4219 128.973 16.6928V15.2994C128.973 14.0963 128.973 13.8735 128.957 13.6183C128.941 13.347 128.88 13.2214 128.621 13.1687C128.56 13.1525 128.467 13.1444 128.366 13.1444C128.281 13.1444 128.232 13.1282 128.232 13.0715C128.232 13.0148 128.285 12.9986 128.402 12.9986C128.771 12.9986 129.261 13.0229 129.471 13.0229C129.658 13.0229 130.229 12.9986 130.533 12.9986C130.642 12.9986 130.695 13.0148 130.695 13.0715C130.695 13.1282 130.646 13.1444 130.553 13.1444C130.468 13.1444 130.342 13.1525 130.249 13.1687C130.039 13.2092 129.978 13.3429 129.962 13.6183C129.945 13.8735 129.945 14.0923 129.945 15.2994V16.6968H129.949Z" fill="white"/>
<path fill-rule="evenodd" clip-rule="evenodd" d="M136.025 12.8933C133.688 12.8933 132.805 14.6432 132.805 16.0001C132.805 17.4016 133.708 19.107 135.948 19.1029C137.929 19.1029 139.177 17.669 139.177 15.8543C139.177 14.0437 137.97 12.8933 136.025 12.8933ZM135.803 13.274C137.083 13.274 138.087 14.3758 138.087 16.15C138.087 18.4386 136.823 18.71 136.277 18.71C134.782 18.71 133.883 17.4016 133.883 15.753C133.883 13.7804 134.903 13.274 135.803 13.274Z" fill="white"/>
<path d="M145.621 18.4629C145.621 18.6776 145.613 18.6938 145.52 18.7464C145.014 19.0178 144.248 19.1029 143.641 19.1029C141.729 19.1029 140.036 18.1834 140.036 15.9961C140.036 14.7282 140.684 13.8411 141.392 13.4077C142.142 12.9459 142.835 12.8933 143.491 12.8933C144.029 12.8933 144.714 12.9864 144.872 13.0188C145.034 13.0513 145.309 13.0999 145.488 13.1039C145.581 13.112 145.597 13.1444 145.597 13.1971C145.597 13.2821 145.544 13.5049 145.544 14.4973C145.544 14.6229 145.52 14.6634 145.459 14.6634C145.403 14.6634 145.39 14.6229 145.382 14.5581C145.358 14.3758 145.318 14.1206 145.115 13.9019C144.88 13.6507 144.256 13.2821 143.373 13.2821C142.944 13.2821 142.377 13.3145 141.83 13.7723C141.392 14.1449 141.113 14.7404 141.113 15.7125C141.113 17.4178 142.182 18.6897 143.827 18.6897C144.029 18.6897 144.305 18.6897 144.491 18.6047C144.609 18.548 144.641 18.4467 144.641 18.313V17.5677C144.641 17.1707 144.641 16.871 144.633 16.632C144.625 16.3606 144.556 16.2351 144.297 16.1824C144.236 16.1662 144.102 16.1581 143.993 16.1581C143.924 16.1581 143.876 16.1419 143.876 16.0933C143.876 16.0285 143.928 16.0123 144.038 16.0123C144.443 16.0123 144.933 16.0366 145.168 16.0366C145.411 16.0366 145.824 16.0123 146.079 16.0123C146.18 16.0123 146.237 16.0285 146.237 16.0933C146.237 16.1419 146.188 16.1581 146.136 16.1581C146.075 16.1581 146.018 16.1662 145.925 16.1824C145.715 16.2229 145.638 16.3566 145.629 16.632C145.621 16.871 145.621 17.187 145.621 17.5839V18.4629Z" fill="white"/>
<path d="M147.801 15.3034C147.801 14.1004 147.801 13.8776 147.784 13.6224C147.768 13.351 147.691 13.2173 147.517 13.1768C147.432 13.1525 147.331 13.1444 147.238 13.1444C147.161 13.1444 147.112 13.1282 147.112 13.0634C147.112 13.0148 147.173 12.9986 147.298 12.9986C147.594 12.9986 148.088 13.0229 148.311 13.0229C148.505 13.0229 148.967 12.9986 149.263 12.9986C149.364 12.9986 149.425 13.0148 149.425 13.0634C149.425 13.1282 149.376 13.1444 149.299 13.1444C149.222 13.1444 149.158 13.1525 149.064 13.1687C148.854 13.2092 148.793 13.3429 148.777 13.6183C148.761 13.8695 148.761 14.0923 148.761 15.2994V16.6928C148.761 17.4624 148.761 18.0862 148.793 18.4264C148.817 18.6411 148.87 18.7829 149.105 18.8153C149.214 18.8315 149.384 18.8477 149.502 18.8477C149.587 18.8477 149.627 18.872 149.627 18.9125C149.627 18.9692 149.567 18.9935 149.478 18.9935C148.963 18.9935 148.473 18.9692 148.262 18.9692C148.084 18.9692 147.59 18.9935 147.278 18.9935C147.177 18.9935 147.12 18.9692 147.12 18.9125C147.12 18.872 147.153 18.8477 147.246 18.8477C147.363 18.8477 147.456 18.8315 147.525 18.8153C147.679 18.7829 147.728 18.6492 147.752 18.4183C147.793 18.0862 147.793 17.4624 147.793 16.6928V15.3034H147.801Z" fill="white"/>
<path d="M151.329 15.3034C151.329 14.1004 151.329 13.8776 151.312 13.6224C151.296 13.351 151.236 13.2254 150.976 13.1728C150.916 13.1566 150.782 13.1485 150.672 13.1485C150.587 13.1485 150.539 13.1323 150.539 13.0756C150.539 13.0188 150.591 13.0026 150.709 13.0026C150.92 13.0026 151.146 13.0107 151.341 13.0107C151.543 13.0188 151.722 13.0269 151.831 13.0269C152.082 13.0269 153.634 13.0269 153.779 13.0188C153.929 13.0026 154.051 12.9864 154.116 12.9702C154.156 12.9621 154.201 12.9378 154.241 12.9378C154.282 12.9378 154.29 12.9702 154.29 13.0107C154.29 13.0675 154.249 13.1606 154.225 13.5252C154.217 13.6021 154.201 13.9545 154.184 14.0477C154.176 14.0882 154.16 14.1328 154.107 14.1328C154.055 14.1328 154.039 14.0923 154.039 14.0234C154.039 13.9667 154.03 13.833 153.99 13.7399C153.937 13.5981 153.856 13.5009 153.467 13.4563C153.334 13.4401 152.516 13.4239 152.358 13.4239C152.317 13.4239 152.305 13.4482 152.305 13.5049V15.51C152.305 15.5667 152.313 15.5951 152.358 15.5951C152.528 15.5951 153.427 15.5951 153.605 15.5788C153.791 15.5626 153.909 15.5383 153.978 15.4614C154.035 15.3966 154.063 15.3561 154.103 15.3561C154.136 15.3561 154.156 15.3723 154.156 15.4209C154.156 15.4695 154.124 15.5951 154.095 16.0001C154.087 16.1581 154.063 16.474 154.063 16.5307C154.063 16.5956 154.063 16.6806 153.994 16.6806C153.941 16.6806 153.925 16.6482 153.925 16.6077C153.917 16.5267 153.917 16.4254 153.893 16.3242C153.852 16.1662 153.743 16.0447 153.455 16.0163C153.305 16.0001 152.536 15.992 152.349 15.992C152.309 15.992 152.301 16.0244 152.301 16.073V16.7009C152.301 16.9682 152.293 17.6973 152.301 17.9282C152.317 18.4751 152.443 18.5925 153.237 18.5925C153.439 18.5925 153.767 18.5925 153.97 18.4994C154.172 18.4062 154.265 18.2361 154.322 17.912C154.338 17.8229 154.355 17.7945 154.407 17.7945C154.468 17.7945 154.468 17.8594 154.468 17.9363C154.468 18.1186 154.407 18.6573 154.367 18.8153C154.314 19.0219 154.241 19.0219 153.945 19.0219C153.362 19.0219 152.933 19.0057 152.597 18.9976C152.26 18.9814 152.017 18.9733 151.786 18.9733C151.701 18.9733 151.527 18.9733 151.341 18.9814C151.163 18.9814 150.96 18.9976 150.802 18.9976C150.701 18.9976 150.644 18.9733 150.644 18.9166C150.644 18.8761 150.677 18.8518 150.77 18.8518C150.887 18.8518 150.98 18.8356 151.049 18.8194C151.207 18.7869 151.244 18.6128 151.276 18.3819C151.317 18.0497 151.317 17.4219 151.317 16.6928V15.3034H151.329Z" fill="white"/>
<path d="M155.829 18.9004C155.703 18.8437 155.679 18.8072 155.679 18.633C155.679 18.1956 155.711 17.7216 155.72 17.5961C155.728 17.4786 155.752 17.3895 155.813 17.3895C155.882 17.3895 155.89 17.4624 155.89 17.5232C155.89 17.6244 155.922 17.7905 155.959 17.9282C156.129 18.5156 156.59 18.7303 157.072 18.7303C157.773 18.7303 158.118 18.2482 158.118 17.827C158.118 17.4381 158 17.0735 157.352 16.5591L156.991 16.2756C156.133 15.5951 155.837 15.0401 155.837 14.3961C155.837 13.5252 156.554 12.8973 157.64 12.8973C158.146 12.8973 158.474 12.9784 158.677 13.031C158.745 13.0472 158.786 13.0715 158.786 13.1242C158.786 13.2295 158.754 13.4563 158.754 14.0761C158.754 14.2503 158.729 14.3151 158.668 14.3151C158.612 14.3151 158.591 14.2665 158.591 14.1733C158.591 14.1004 158.551 13.8573 158.389 13.6508C158.271 13.5009 158.045 13.2619 157.538 13.2619C156.959 13.2619 156.611 13.6021 156.611 14.0761C156.611 14.4406 156.789 14.7161 157.437 15.2184L157.656 15.3844C158.6 16.1054 158.936 16.6523 158.936 17.4057C158.936 17.8634 158.766 18.4103 158.203 18.7829C157.814 19.034 157.376 19.107 156.963 19.107C156.514 19.107 156.165 19.0503 155.829 18.9004Z" fill="white"/>
<path d="M57.1312 11.2528L54.9115 11.3135C54.0487 11.3419 53.6882 11.4189 53.4654 11.747C53.3155 11.9697 53.2426 12.148 53.2142 12.2695C53.1818 12.387 53.1413 12.4477 53.0482 12.4477C52.9428 12.4477 52.9145 12.3748 52.9145 12.2087C52.9145 11.9697 53.198 10.6128 53.2264 10.4953C53.2709 10.3009 53.3155 10.2118 53.4046 10.2118C53.5221 10.2118 53.672 10.3616 54.0446 10.39C54.478 10.4345 55.0451 10.4629 55.5352 10.4629H61.4411C61.919 10.4629 62.2471 10.4183 62.4699 10.39C62.6927 10.3454 62.8142 10.3171 62.8709 10.3171C62.9763 10.3171 62.9884 10.4062 62.9884 10.629C62.9884 10.9409 62.9439 11.9697 62.9439 12.3586C62.9317 12.5085 62.8993 12.5976 62.8102 12.5976C62.6887 12.5976 62.6603 12.5206 62.6441 12.2978L62.632 12.1358C62.5996 11.747 62.1985 11.3297 60.874 11.3014L58.9945 11.2568V17.3692C58.9945 18.7424 58.9945 19.9171 59.0674 20.5611C59.112 20.9783 59.2011 21.3064 59.6507 21.3672C59.8573 21.3956 60.1894 21.428 60.4122 21.428C60.5742 21.428 60.6512 21.4725 60.6512 21.5454C60.6512 21.6507 60.5337 21.6953 60.3677 21.6953C59.3834 21.6953 58.4436 21.6507 58.0264 21.6507C57.6821 21.6507 56.7423 21.6953 56.1469 21.6953C55.9525 21.6953 55.8471 21.6507 55.8471 21.5454C55.8471 21.4725 55.9079 21.428 56.0861 21.428C56.3089 21.428 56.4912 21.3996 56.6249 21.3672C56.9246 21.3064 57.0137 20.9783 57.0583 20.5449C57.1312 19.9171 57.1312 18.7424 57.1312 17.3692V11.2528Z" fill="white"/>
<path fill-rule="evenodd" clip-rule="evenodd" d="M65.3054 18.0052C65.3337 17.9161 65.3621 17.8877 65.4391 17.8877V17.8918H68.7768C68.8537 17.8918 68.8983 17.9242 68.9266 17.9971L70.1175 21.0675C70.1904 21.2497 70.0892 21.3834 69.9839 21.4118C69.834 21.428 69.7732 21.4563 69.7732 21.5454C69.7732 21.6375 69.9205 21.6459 70.1482 21.6588C70.1709 21.6601 70.1945 21.6614 70.2188 21.6629C71.4097 21.6913 72.4993 21.6913 73.034 21.6913C73.5849 21.6913 73.7185 21.6588 73.7185 21.5414C73.7185 21.4401 73.6416 21.4239 73.5241 21.4239C73.3418 21.4239 73.1191 21.4077 72.8963 21.3632C72.5844 21.2902 72.151 21.0796 71.5839 19.7388C71.0538 18.4834 70.0843 16.0899 69.2647 14.0667C68.6061 12.4409 68.0445 11.0543 67.8856 10.6897C67.7358 10.3454 67.6466 10.2118 67.513 10.2118C67.3631 10.2118 67.274 10.3738 67.0958 10.8072L63.353 20.0507C63.0532 20.7961 62.7697 21.3024 62.0851 21.3915C61.9677 21.4037 61.757 21.4199 61.6234 21.4199C61.5059 21.4199 61.4451 21.4482 61.4451 21.5373C61.4451 21.6588 61.5342 21.6872 61.7287 21.6872C62.2594 21.6872 62.8131 21.6662 63.1607 21.6531C63.3198 21.647 63.4358 21.6426 63.4866 21.6426C63.7155 21.6426 63.9882 21.6536 64.2633 21.6646C64.5431 21.6759 64.8253 21.6872 65.0664 21.6872C65.2284 21.6872 65.3175 21.6548 65.3175 21.5373C65.3175 21.4482 65.273 21.4199 65.0947 21.4199H64.872C64.4102 21.4199 64.2765 21.2254 64.2765 20.9581C64.2765 20.7758 64.3494 20.4194 64.4993 20.0467L65.3054 18.0052ZM68.554 17.0533C68.5702 17.0978 68.554 17.1424 68.4811 17.1424H65.7347C65.674 17.1424 65.6578 17.0978 65.674 17.0371L67.0472 13.3834C67.0634 13.3226 67.0917 13.2497 67.1363 13.2497C67.178 13.2497 67.1949 13.3137 67.2102 13.3718C67.2112 13.3757 67.2122 13.3796 67.2132 13.3834L68.554 17.0533Z" fill="white"/>
<path d="M72.6127 11.7064C72.2684 10.8842 72.0132 10.7181 71.4745 10.5682C71.2476 10.5075 71.0086 10.5075 70.8912 10.5075C70.7575 10.5075 70.713 10.4629 70.713 10.3738C70.713 10.2563 70.879 10.2401 71.1018 10.2401C71.8957 10.2401 72.7464 10.2847 73.273 10.2847C73.6456 10.2847 74.3626 10.2401 75.1119 10.2401C75.2902 10.2401 75.4562 10.2725 75.4562 10.3738C75.4562 10.4791 75.3671 10.5075 75.2335 10.5075C74.9945 10.5075 74.7717 10.5237 74.6502 10.6128C74.5449 10.6897 74.5003 10.791 74.5003 10.9287C74.5003 11.1232 74.634 11.5404 74.8446 12.0791L77.4167 18.872H77.4775C78.1216 17.2275 80.0659 12.4113 80.4223 11.4229C80.4993 11.2285 80.556 11.0057 80.556 10.872C80.556 10.7505 80.4952 10.633 80.3616 10.5885C80.1833 10.5318 79.9565 10.5156 79.7621 10.5156C79.6284 10.5156 79.5069 10.4994 79.5069 10.394C79.5069 10.2766 79.6405 10.2442 79.9281 10.2442C80.6775 10.2442 81.3054 10.2887 81.4998 10.2887C81.755 10.2887 82.4557 10.2442 82.9054 10.2442C83.0998 10.2442 83.2173 10.2766 83.2173 10.3778C83.2173 10.4832 83.1281 10.5115 82.9783 10.5115C82.8284 10.5115 82.5165 10.5115 82.2451 10.6897C82.0507 10.8234 81.8279 11.0786 81.4228 12.0345C80.8395 13.4401 80.4345 14.2502 79.6284 16.0892C78.6724 18.2725 77.9676 19.9049 77.6395 20.6502C77.2507 21.5171 77.1616 21.7561 76.9509 21.7561C76.7565 21.7561 76.6674 21.5454 76.3838 20.8447L72.6127 11.7064Z" fill="white"/>
<rect x="85.9919" y="10.2442" width="0.238987" height="11.4349" fill="white"/>
</svg>
